Patient4_TMGait_0pt5_02_left_30_EMG.mot
version=1
nRows=23
nColumns=33
inDegrees=no
endheader
time	1LAddLong	2LGlutMax	3LGlutMed	4LIliopsoas	5LSemiMemb	6LBicFemLong	7LRecFem	8LVastMed	9LVastLat	10LGasMed	11LTibAnt	12lTibPost	13LPeroneusLong	14LSol	15LExtDigLong	16LFlexDigLong	17RAddLong	18RGlutMax	19RGlutMed	20RIliopsoas	21RSemiMemb	22RBicFemLong	23RRecFem	24RVastMed	25RVastLat	26RGasMed	27RTibAnt	28RTibPost	29RPeroneusLong	30RSol	31RExtDigLong	32RFlexDigLong
38.905	0.029297	1.2607	-0.15671	0.010986	0.027466	0.3421	-0.4042	0.007782	0.045471	0.52719	-0.00946	-0.027771	0.35996	0.20233	-0.055542	-0.034485	0.000916	-0.29037	-0.1387	0.10315	-0.050201	-0.051575	0.49591	-0.16663	-0.046082	0	0.061493	0.30868	0.17349	-0.041504	-0.002899	-0.007782
38.906	0.007782	1.2512	-0.11276	0.017395	-0.00824	0.5452	-0.38315	0.013885	0.024261	0.89554	0.019379	-0.03006	0.65292	-0.1506	-0.20172	-0.029449	-0.020447	-0.39124	-0.001373	0.26276	-0.073547	-0.046234	0.46677	-0.16068	-0.026855	0.000153	0.065002	0.38834	0.063324	0.49759	-0.001831	0.000305
38.907	0.005493	1.2102	-0.007019	-0.00885	-0.012054	0.55985	-0.40253	0.017242	0.007324	0.77301	0.010223	-0.051117	1.1235	-0.16632	-0.076294	-0.059662	-0.043945	-0.42709	0.1004	0.29572	-0.073242	-0.033875	0.43884	-0.16342	-0.013275	0.000153	0.051117	0.11536	0.003357	0.5275	-0.000305	-0.000153
38.908	-0.003967	1.1137	-0.002594	-0.00412	-0.050964	0.29312	-0.41367	0.040283	-0.003662	0.30151	0.012054	-0.030365	1.022	0.010834	0.06958	-0.05661	-0.013123	-0.43671	0.056915	0.11887	-0.073853	-0.03952	0.44403	-0.13702	-0.020752	-0.00061	0.042725	-0.1648	-0.027466	0.52277	-0.001984	-0.008698
38.909	0.000458	1.0564	0.037079	-0.010223	-0.11948	0.18173	-0.35934	0.031128	-0.024872	-0.47424	0.012512	-0.017242	0.56717	0.049744	0.088348	0.10483	-0.032043	-0.41229	-0.070496	-0.054321	-0.059204	-0.024261	0.43259	-0.14236	-0.000153	-0.005646	0.054779	-0.15503	-0.15091	0.41794	-0.005493	-0.005646
38.91	0.008392	0.9169	-0.16586	0.014343	-0.15137	-0.05127	-0.33981	0.009613	-0.031738	-0.68665	-0.014343	-0.021057	-0.70053	0.1532	0.038757	-0.11292	-0.027466	-0.45898	-0.11643	-0.018921	-0.038452	0.000458	0.39673	-0.1181	-0.022888	-0.00061	0.053711	0.29892	-0.23819	0.14114	-0.000458	-0.007629
38.911	0.023956	0.81177	-0.30884	0.007172	-0.13031	-0.30533	-0.32074	0.00946	-0.027313	-0.70969	0.005188	-0.050812	-1.4001	-0.32364	-0.075836	-0.063171	-0.000153	-0.45731	-0.1329	-0.011139	-0.03418	-0.019226	0.38025	-0.095978	-0.017853	0.005035	0.059967	0.062256	-0.26596	0.09491	-0.002747	-0.007324
38.912	0.039368	0.86807	-0.19257	-0.001373	0.037842	-0.28732	-0.27359	0.012207	0.009766	-0.45075	0.013123	-0.065613	-0.12482	-0.71259	-0.14679	0.22354	0.025635	-0.41855	-0.015106	-0.029297	-0.029907	0.03006	0.35095	-0.088043	-0.016327	0.010986	0.058594	0.009766	-0.21515	0.048828	-0.00061	-0.001373
38.913	0.034637	0.82352	-0.074158	0.028839	0.18997	-0.24124	-0.23056	-0.004272	-0.018616	-0.30945	0.03891	-0.048523	0.75073	-0.64789	-0.086975	0.041809	0.059052	-0.4744	0.011749	0.019989	-0.006714	0.017242	0.38284	-0.056152	-0.010376	0.02243	0.03479	-0.048065	0.052948	0.039978	0	-0.005035
38.914	0.023193	0.67703	-0.057373	0.011597	0.11444	-0.25436	-0.2269	0.001373	0.01709	-0.26871	0.039978	-0.041046	0.35309	-0.28015	-0.002899	-0.11658	0.095978	-0.49316	-0.09079	0.046997	-0.015564	0.007172	0.39703	-0.10941	-0.002289	0.030212	0.026093	-0.045166	0.19104	0.072937	-0.002136	0.001373
38.915	0.021973	0.58823	-0.07019	-0.000458	0.081635	-0.37491	-0.32883	0.032501	0.13992	-0.27252	-0.001678	-0.014191	-0.44296	0.098572	0.056152	-0.066071	0.12573	-0.51971	-0.16785	-0.016174	-0.031586	-0.009918	0.40161	-0.13382	-0.031281	0.033569	0.050812	-0.053406	0.12375	0.083466	-0.002899	-0.001678
38.916	0.0177	0.56	0.19394	-0.006561	0.050659	0.062866	-0.40894	0.041962	0.25223	-0.21286	-0.04364	-0.017853	-0.9021	0.15106	0.02594	-0.055695	0.11185	-0.56412	-0.075073	-0.039063	-0.053406	-0.00412	0.41885	-0.18082	-0.03006	0.019073	0.050659	-0.060272	0.11414	-0.091095	-0.003052	0.002747
38.917	0.010529	0.52109	0.064392	0.018158	0.027313	0.37415	-0.44464	0.027466	0.34897	0.034943	-0.054016	-0.03479	-0.49286	0.18631	-0.059204	-0.043945	0.11902	-0.6163	-0.027466	0.032349	-0.036469	-0.015259	0.42801	-0.17166	-0.049896	0.013275	0.032196	-0.076141	0.14404	-0.34409	-0.006409	0.002747
38.918	0.008392	0.49911	0.070496	0.019989	-0.027313	0.33569	-0.48813	0.00412	0.27512	0.10712	-0.026703	-0.029449	0.13367	-0.08316	-0.054626	-0.023193	0.12421	-0.69321	-0.14008	0.018463	-0.040741	0.004883	0.42816	-0.16449	-0.031586	-0.00885	0.028687	-0.10681	0.11948	-0.56961	-0.001831	-0.002289
38.919	0.013733	0.41779	0.057526	0.016479	-0.025635	0.32135	-0.40497	0.021973	-0.061646	-0.031891	-0.032654	-0.030212	0.26306	-0.1471	-0.0383	-0.016785	0.085907	-0.76035	-0.036774	-0.031586	-0.050507	-0.007172	0.41046	-0.11932	-0.040436	-0.041046	0.041656	-0.10712	-0.11841	-0.47318	-0.002289	-0.00351
38.92	0.003204	0.27817	0.10468	0.014954	-0.033417	0.27145	-0.2182	0.025787	-0.34882	-0.112	-0.049744	-0.020447	0.43671	-0.10773	-0.032043	-0.006256	0.064392	-0.71335	0.12314	-0.1152	-0.050201	0.014648	0.37705	-0.14938	-0.016785	-0.039063	0.063171	-0.081329	-0.16937	-0.03006	-0.001678	-0.003357
38.921	-0.014954	0.24017	0.12512	0.013275	-0.049286	-0.13977	-0.027313	0.025482	-0.38971	-0.086823	-0.026398	-0.022278	0.12161	0.061798	0.02533	0.012054	0.001373	-0.73898	0.091858	-0.062561	-0.046997	0.028229	0.37674	-0.091248	-0.010681	-0.03067	0.046844	-0.008087	0.03067	0.25284	-0.005188	-0.001831
38.922	-0.016937	0.2356	0.076904	0.033417	-0.031433	-0.45212	0.067596	0.015869	-0.1445	-0.092163	-0.012665	-0.013123	-0.13275	0.18982	0.027771	0.014954	-0.001984	-0.77148	-0.06073	-0.062103	-0.037079	0.030212	0.34256	-0.085449	-0.008698	-0.015259	0.025177	-0.012512	0.21637	-0.12573	0.001984	-0.006104
38.923	-0.024719	0.16083	0.016937	0.032196	-0.055389	-0.70175	0.050049	-0.006714	-0.07843	-0.063934	-0.0383	-0.026703	0.43488	0.022736	-0.032349	-0.005798	-0.01358	-0.79926	-0.13992	-0.028534	-0.020142	0.041504	0.27405	-0.041962	-0.007172	-0.005798	0.076294	-0.039063	0.33295	-0.013428	-0.001678	-0.011444
38.924	-0.027008	0.19928	0.039063	0.023193	-0.095825	-0.15823	0.024719	-0.011749	-0.039673	0.084381	-0.076599	-0.016327	0.60654	-0.058746	-0.060883	-0.005188	0.009003	-0.75317	-0.22079	-0.07431	-0.007629	0.056152	0.24277	-0.008392	0.003357	-0.003052	0.1236	0.014801	0.39108	0.37445	-0.002289	-0.007172
38.925	-0.028076	0.14816	0.045624	-0.010376	-0.10742	0.3447	-0.032501	-0.018921	-0.052185	0.14801	-0.021973	-0.013428	0.076752	-0.11108	-0.18768	-0.010529	0.009613	-0.7515	-0.23956	-0.084839	-0.012207	0.043945	0.28503	-0.01236	-0.003662	-0.000916	0.15732	-0.01236	-0.72266	0.38422	-0.001984	-0.008545
38.926	-0.020905	0.034027	0.013275	-0.008545	-0.02121	0.60745	-0.10956	-0.012512	-0.022888	0.15945	0.033417	-0.00061	-0.11429	-0.076599	-0.3331	-0.000916	0.020142	-0.77103	-0.21896	-0.10605	-0.007172	0.021515	0.30914	-0.009918	-0.023193	0.018768	0.08316	-0.017395	-1.5866	0.070038	-0.00824	-0.005035
38.927	-0.01358	-0.0354	-0.053101	-0.007019	0.009155	0.47882	-0.10651	0.006104	0.050354	0.1648	0.066833	-0.006714	-0.27832	-0.062866	-0.31387	0	-0.001068	-0.79788	-0.24048	-0.12451	-0.016174	0.040588	0.34668	-0.06073	-0.027008	0.011902	-0.027924	-0.079651	-1.2354	-0.07019	0.001068	-0.011444
